<svg xmlns="http://www.w3.org/2000/svg" width="510.97418212890625" height="392.6767883300781" viewBox="-253.86834716796875 -203.31785583496094 510.97418212890625 392.6767883300781"><title>Neo4j Graph Visualization</title><desc>Created using Neo4j (http://www.neo4j.com/)</desc><g class="layer relationships"><g class="relationship" transform="translate(-178.05702579096067 19.156729468250262) rotate(412.3205971234497)"><path class="b-outline" fill="#A5ABB6" stroke="none" d="M 31.26317983184346,8.894581878976458 L 31.52199887694598,7.92865605268739 A 198.80163257222202 198.80163257222202 0 0 0 48.18853698955749,11.635401102676184 L 48.0135529607824,12.619972374689354 A 199.80163257222202 199.80163257222202 0 0 1 31.26317983184346,8.894581878976458 Z M 113.87370984935124,13.299105195061912 L 113.71906615666734,12.311134887657317 A 198.80163257222202 198.80163257222202 0 0 0 130.45849812930916,8.948863518769278 L 129.74196200336036,6.035690681430185 L 137.37532410409185,7.7624746977786065 L 131.41387963057423,12.833093968554731 L 130.69734350462542,9.91992113121564 A 199.80163257222202 199.80163257222202 0 0 1 113.87370984935124,13.299105195061912"/><text text-anchor="middle" pointer-events="none" font-size="8px" fill="#000000" x="80.92061020395012" y="18.19206219094181" font-family="Helvetica Neue, Helvetica, Arial, sans-serif">FRIENDS_WITH</text></g><g class="relationship" transform="translate(-74.79694847608138 152.85896623853583) rotate(232.32059712344972)"><path class="b-outline" fill="#A5ABB6" stroke="none" d="M 31.26317983184346,8.894581878976458 L 31.52199887694598,7.92865605268739 A 198.80163257222202 198.80163257222202 0 0 0 48.18853698955749,11.635401102676184 L 48.0135529607824,12.619972374689354 A 199.80163257222202 199.80163257222202 0 0 1 31.26317983184346,8.894581878976458 Z M 113.87370984935124,13.299105195061912 L 113.71906615666734,12.311134887657317 A 198.80163257222202 198.80163257222202 0 0 0 130.45849812930916,8.948863518769278 L 129.74196200336036,6.035690681430185 L 137.37532410409185,7.7624746977786065 L 131.41387963057423,12.833093968554731 L 130.69734350462542,9.91992113121564 A 199.80163257222202 199.80163257222202 0 0 1 113.87370984935124,13.299105195061912"/><text text-anchor="middle" pointer-events="none" font-size="8px" fill="#000000" x="80.92061020395012" y="18.19206219094181" transform="rotate(180 80.92061020395012 15.192062190941812)" font-family="Helvetica Neue, Helvetica, Arial, sans-serif">FRIENDS_WITH</text></g><g class="relationship" transform="translate(-74.79694847608138 152.85896623853583) rotate(355.26300170596073)"><path class="b-outline" fill="#A5ABB6" stroke="none" d="M 32.5 0.5 L 53.34573812728209 0.5 L 53.34573812728209 -0.5 L 32.5 -0.5 Z M 107.62907095198912 0.5 L 128.4748090792712 0.5 L 128.4748090792712 3.5 L 135.4748090792712 0 L 128.4748090792712 -3.5 L 128.4748090792712 -0.5 L 107.62907095198912 -0.5 Z"/><text text-anchor="middle" pointer-events="none" font-size="8px" fill="#000000" x="80.4874045396356" y="3" font-family="Helvetica Neue, Helvetica, Arial, sans-serif">FOLLOWING</text></g><g class="relationship" transform="translate(92.60410365431085 138.987260112204) rotate(321.0970245806336)"><path class="b-outline" fill="#A5ABB6" stroke="none" d="M 32.5 0.5 L 49.95771544579816 0.5 L 49.95771544579816 -0.5 L 32.5 -0.5 Z M 107.52438109521222 0.5 L 124.98209654101038 0.5 L 124.98209654101038 3.5 L 131.98209654101038 0 L 124.98209654101038 -3.5 L 124.98209654101038 -0.5 L 107.52438109521222 -0.5 Z"/><text text-anchor="middle" pointer-events="none" font-size="8px" fill="#000000" x="78.74104827050519" y="3" font-family="Helvetica Neue, Helvetica, Arial, sans-serif">LISTENIG_TO</text></g><g class="relationship" transform="translate(193.37692113002095 -130.14113174841617) rotate(440.67554722326713)"><path class="b-outline" fill="#A5ABB6" stroke="none" d="M 31.26317983184346,8.894581878976458 L 31.52199887694598,7.92865605268739 A 197.06929517465227 197.06929517465227 0 0 0 51.55433832910765,12.194435069922548 L 51.39717053025538,13.18200698274913 A 198.06929517465227 198.06929517465227 0 0 1 31.26317983184346,8.894581878976458 Z M 109.59670659676175,13.7851702188984 L 109.46004017958782,12.7945530928518 A 197.06929517465227 197.06929517465227 0 0 0 129.57648600133393,8.944864527361856 L 128.8602526537712,6.031617234075711 L 136.4934352435954,7.759194598596462 L 130.53146379808427,12.829194251743385 L 129.81523045052154,9.915946958457239 A 198.06929517465227 198.06929517465227 0 0 1 109.59670659676175,13.7851702188984"/><text text-anchor="middle" pointer-events="none" font-size="8px" fill="#000000" x="80.47984432940916" y="18.13302018811396" font-family="Helvetica Neue, Helvetica, Arial, sans-serif">MARRIED_TO</text></g><g class="relationship" transform="translate(193.37692113002095 -130.14113174841617) rotate(196.40518749381994)"><path class="b-outline" fill="#A5ABB6" stroke="none" d="M 32.5 0.5 L 51.69207930691748 0.5 L 51.69207930691748 -0.5 L 32.5 -0.5 Z M 105.22541213162451 0.5 L 124.41749143854199 0.5 L 124.41749143854199 3.5 L 131.417491438542 0 L 124.41749143854199 -3.5 L 124.41749143854199 -0.5 L 105.22541213162451 -0.5 Z"/><text text-anchor="middle" pointer-events="none" font-size="8px" fill="#000000" x="78.458745719271" y="3" transform="rotate(180 78.458745719271 0)" font-family="Helvetica Neue, Helvetica, Arial, sans-serif">LIVINING_IN</text></g><g class="relationship" transform="translate(-74.79694847608138 152.85896623853583) rotate(537.7690665298927)"><path class="b-outline" fill="#A5ABB6" stroke="none" d="M 32.5 0.5 L 54.56761886596806 0.5 L 54.56761886596806 -0.5 L 32.5 -0.5 Z M 96.1176181030286 0.5 L 118.18523696899666 0.5 L 118.18523696899666 3.5 L 125.18523696899666 0 L 118.18523696899666 -3.5 L 118.18523696899666 -0.5 L 96.1176181030286 -0.5 Z"/><text text-anchor="middle" pointer-events="none" font-size="8px" fill="#000000" x="75.34261848449833" y="3" transform="rotate(180 75.34261848449833 0)" font-family="Helvetica Neue, Helvetica, Arial, sans-serif">BORN_IN</text></g><g class="relationship" transform="translate(68.83190892857108 -20.96313305090105) rotate(260.5575441206371)"><path class="b-outline" fill="#A5ABB6" stroke="none" d="M 25 0.5 L 46.55554554450086 0.5 L 46.55554554450086 -0.5 L 25 -0.5 Z M 101.90554401862195 0.5 L 123.46108956312281 0.5 L 123.46108956312281 3.5 L 130.4610895631228 0 L 123.46108956312281 -3.5 L 123.46108956312281 -0.5 L 101.90554401862195 -0.5 Z"/><text text-anchor="middle" pointer-events="none" font-size="8px" fill="#000000" x="74.2305447815614" y="3" transform="rotate(180 74.2305447815614 0)" font-family="Helvetica Neue, Helvetica, Arial, sans-serif">LOCATED_IN</text></g><g class="relationship" transform="translate(92.60410365431085 138.987260112204) rotate(261.5464495652849)"><path class="b-outline" fill="#A5ABB6" stroke="none" d="M 32.5 0.5 L 56.87030812859035 0.5 L 56.87030812859035 -0.5 L 32.5 -0.5 Z M 105.33697530388332 0.5 L 129.70728343247367 0.5 L 129.70728343247367 3.5 L 136.70728343247367 0 L 129.70728343247367 -3.5 L 129.70728343247367 -0.5 L 105.33697530388332 -0.5 Z"/><text text-anchor="middle" pointer-events="none" font-size="8px" fill="#000000" x="81.10364171623684" y="3" transform="rotate(180 81.10364171623684 0)" font-family="Helvetica Neue, Helvetica, Arial, sans-serif">WORKS_IN</text></g><g class="relationship" transform="translate(-178.05702579096067 19.156729468250262) rotate(305.8286468071758)"><path class="b-outline" fill="#A5ABB6" stroke="none" d="M 32.5 0.5 L 50.98207776435345 0.5 L 50.98207776435345 -0.5 L 32.5 -0.5 Z M 103.81540982612103 0.5 L 122.29748759047447 0.5 L 122.29748759047447 3.5 L 129.29748759047447 0 L 122.29748759047447 -3.5 L 122.29748759047447 -0.5 L 103.81540982612103 -0.5 Z"/><text text-anchor="middle" pointer-events="none" font-size="8px" fill="#000000" x="77.39874379523724" y="3" font-family="Helvetica Neue, Helvetica, Arial, sans-serif">STUDIES_IN</text></g><g class="relationship" transform="translate(-87.73696728740319 -105.94323739284279) rotate(332.4495267857486)"><path class="b-outline" fill="#A5ABB6" stroke="none" d="M 25 0.5 L 42.73874520435767 0.5 L 42.73874520435767 -0.5 L 25 -0.5 Z M 98.08874367847876 0.5 L 115.82748888283643 0.5 L 115.82748888283643 3.5 L 122.82748888283643 0 L 115.82748888283643 -3.5 L 115.82748888283643 -0.5 L 98.08874367847876 -0.5 Z"/><text text-anchor="middle" pointer-events="none" font-size="8px" fill="#000000" x="70.41374444141822" y="3" font-family="Helvetica Neue, Helvetica, Arial, sans-serif">LOCATED_IN</text></g><g class="relationship" transform="translate(220.60580429947743 35.69193246147522) rotate(260.67554722326713)"><path class="b-outline" fill="#A5ABB6" stroke="none" d="M 31.26317983184346,8.894581878976458 L 31.52199887694598,7.92865605268739 A 197.06929517465227 197.06929517465227 0 0 0 51.55433832910765,12.194435069922548 L 51.39717053025538,13.18200698274913 A 198.06929517465227 198.06929517465227 0 0 1 31.26317983184346,8.894581878976458 Z M 109.59670659676175,13.7851702188984 L 109.46004017958782,12.7945530928518 A 197.06929517465227 197.06929517465227 0 0 0 129.57648600133393,8.944864527361856 L 128.8602526537712,6.031617234075711 L 136.4934352435954,7.759194598596462 L 130.53146379808427,12.829194251743385 L 129.81523045052154,9.915946958457239 A 198.06929517465227 198.06929517465227 0 0 1 109.59670659676175,13.7851702188984"/><text text-anchor="middle" pointer-events="none" font-size="8px" fill="#000000" x="80.47984432940916" y="18.13302018811396" transform="rotate(180 80.47984432940916 15.13302018811396)" font-family="Helvetica Neue, Helvetica, Arial, sans-serif">MARRIED_TO</text></g></g><g class="layer nodes"><g class="node" aria-label="graph-node0" transform="translate(-74.79694847608138,152.85896623853583)"><circle class="b-outline" cx="0" cy="0" r="32.5" fill="#D9C8AE" stroke="#c0a378" stroke-width="2px"/><text class="caption" text-anchor="middle" pointer-events="none" x="0" y="5" font-size="10px" fill="#2A2C34" font-family="Helvetica Neue, Helvetica, Arial, sans-serif"> Петя</text></g><g class="node" aria-label="graph-node1" transform="translate(92.60410365431085,138.987260112204)"><circle class="b-outline" cx="0" cy="0" r="32.5" fill="#D9C8AE" stroke="#c0a378" stroke-width="2px"/><text class="caption" text-anchor="middle" pointer-events="none" x="0" y="5" font-size="10px" fill="#2A2C34" font-family="Helvetica Neue, Helvetica, Arial, sans-serif"> Люба</text></g><g class="node" aria-label="graph-node2" transform="translate(220.60580429947743,35.69193246147522)"><circle class="b-outline" cx="0" cy="0" r="32.5" fill="#D9C8AE" stroke="#c0a378" stroke-width="2px"/><text class="caption" text-anchor="middle" pointer-events="none" x="0" y="5" font-size="10px" fill="#2A2C34" font-family="Helvetica Neue, Helvetica, Arial, sans-serif"> Анюта</text></g><g class="node" aria-label="graph-node3" transform="translate(193.37692113002095,-130.14113174841617)"><circle class="b-outline" cx="0" cy="0" r="32.5" fill="#D9C8AE" stroke="#c0a378" stroke-width="2px"/><text class="caption" text-anchor="middle" pointer-events="none" x="0" y="5" font-size="10px" fill="#2A2C34" font-family="Helvetica Neue, Helvetica, Arial, sans-serif"> Лёша</text></g><g class="node" aria-label="graph-node4" transform="translate(43.32743482553504,-174.31785964542388)"><circle class="b-outline" cx="0" cy="0" r="25" fill="#F79767" stroke="#f36924" stroke-width="2px"/><text class="caption" text-anchor="middle" pointer-events="none" x="0" y="5" font-size="10px" fill="#FFFFFF" font-family="Helvetica Neue, Helvetica, Arial, sans-serif"> Питер</text></g><g class="node" aria-label="graph-node5" transform="translate(-178.05702579096067,19.156729468250262)"><circle class="b-outline" cx="0" cy="0" r="32.5" fill="#D9C8AE" stroke="#c0a378" stroke-width="2px"/><text class="caption" text-anchor="middle" pointer-events="none" x="0" y="5" font-size="10px" fill="#2A2C34" font-family="Helvetica Neue, Helvetica, Arial, sans-serif"> Вася</text></g><g class="node" aria-label="graph-node6" transform="translate(-224.86835187625354,158.70527147658854)"><circle class="b-outline" cx="0" cy="0" r="25" fill="#F79767" stroke="#f36924" stroke-width="2px"/><text class="caption" text-anchor="middle" pointer-events="none" x="0" y="5" font-size="10px" fill="#FFFFFF" font-family="Helvetica Neue, Helvetica, Arial, sans-serif"> Мичури…</text></g><g class="node" aria-label="graph-node7" transform="translate(68.83190892857108,-20.96313305090105)"><circle class="b-outline" cx="0" cy="0" r="25" fill="#F16667" stroke="#eb2728" stroke-width="2px"/><text class="caption" text-anchor="middle" pointer-events="none" x="0" y="5" font-size="10px" fill="#FFFFFF" font-family="Helvetica Neue, Helvetica, Arial, sans-serif"> Кунстк…</text></g><g class="node" aria-label="graph-node8" transform="translate(-87.73696728740319,-105.94323739284279)"><circle class="b-outline" cx="0" cy="0" r="25" fill="#D9C8AE" stroke="#c0a378" stroke-width="2px"/><text class="caption" text-anchor="middle" pointer-events="none" x="0" y="5" font-size="10px" fill="#2A2C34" font-family="Helvetica Neue, Helvetica, Arial, sans-serif"> ITMO</text></g></g></svg>